<?xml version="1.0" encoding="UTF-8" standalone="no"?>
<!DOCTYPE svg PUBLIC "-//W3C//DTD SVG 1.1//EN"
 "http://www.w3.org/Graphics/SVG/1.1/DTD/svg11.dtd">
<!-- Generated by graphviz version 9.0.0 (20230911.1827)
 -->
<!-- Pages: 1 -->
<svg width="727pt" height="332pt"
 viewBox="0.00 0.00 727.34 332.00" xmlns="http://www.w3.org/2000/svg" xmlns:xlink="http://www.w3.org/1999/xlink">
<g id="graph0" class="graph" transform="scale(1 1) rotate(0) translate(4 328)">
<polygon fill="white" stroke="none" points="-4,4 -4,-328 723.34,-328 723.34,4 -4,4"/>
<!-- a0 -->
<g id="node1" class="node">
<title>a0</title>
<ellipse fill="none" stroke="black" cx="345.34" cy="-306" rx="27" ry="18"/>
<text text-anchor="middle" x="345.34" y="-300.95" font-family="Times,serif" font-size="14.00">s</text>
</g>
<!-- a1 -->
<g id="node2" class="node">
<title>a1</title>
<ellipse fill="none" stroke="black" cx="34.34" cy="-234" rx="28.83" ry="18"/>
<text text-anchor="middle" x="34.34" y="-228.95" font-family="Times,serif" font-size="14.00">FOR</text>
</g>
<!-- a0&#45;&gt;a1 -->
<g id="edge1" class="edge">
<title>a0&#45;&gt;a1</title>
<path fill="none" stroke="black" d="M318.87,-301.91C269.53,-295.7 160.5,-279.87 72.34,-252 70.54,-251.43 68.71,-250.8 66.88,-250.13"/>
<polygon fill="black" stroke="black" points="68.5,-247.01 57.92,-246.51 65.88,-253.5 68.5,-247.01"/>
</g>
<!-- a2 -->
<g id="node3" class="node">
<title>a2</title>
<ellipse fill="none" stroke="black" cx="108.34" cy="-234" rx="27" ry="18"/>
<text text-anchor="middle" x="108.34" y="-228.95" font-family="Times,serif" font-size="14.00">LP</text>
</g>
<!-- a0&#45;&gt;a2 -->
<g id="edge8" class="edge">
<title>a0&#45;&gt;a2</title>
<path fill="none" stroke="black" d="M319.5,-299.78C280.78,-291.6 205.72,-274.37 144.34,-252 142.8,-251.44 141.24,-250.83 139.66,-250.2"/>
<polygon fill="black" stroke="black" points="141.34,-247.11 130.78,-246.33 138.55,-253.53 141.34,-247.11"/>
</g>
<!-- a3 -->
<g id="node4" class="node">
<title>a3</title>
<ellipse fill="none" stroke="black" cx="180.34" cy="-234" rx="27" ry="18"/>
<text text-anchor="middle" x="180.34" y="-228.95" font-family="Times,serif" font-size="14.00">a</text>
</g>
<!-- a0&#45;&gt;a3 -->
<g id="edge13" class="edge">
<title>a0&#45;&gt;a3</title>
<path fill="none" stroke="black" d="M322.36,-295.97C296.44,-285.69 253.12,-268.22 216.34,-252 215.03,-251.42 213.69,-250.82 212.34,-250.21"/>
<polygon fill="black" stroke="black" points="213.88,-247.07 203.34,-246.06 210.95,-253.43 213.88,-247.07"/>
</g>
<!-- a8 -->
<g id="node9" class="node">
<title>a8</title>
<ellipse fill="none" stroke="black" cx="290.34" cy="-234" rx="65.17" ry="18"/>
<text text-anchor="middle" x="290.34" y="-228.95" font-family="Times,serif" font-size="14.00">SEMICOLON</text>
</g>
<!-- a0&#45;&gt;a8 -->
<g id="edge17" class="edge">
<title>a0&#45;&gt;a8</title>
<path fill="none" stroke="black" d="M333.14,-289.46C326.52,-281.04 318.17,-270.41 310.6,-260.78"/>
<polygon fill="black" stroke="black" points="313.54,-258.85 304.61,-253.15 308.03,-263.18 313.54,-258.85"/>
</g>
<!-- a9 -->
<g id="node10" class="node">
<title>a9</title>
<ellipse fill="none" stroke="black" cx="400.34" cy="-234" rx="27" ry="18"/>
<text text-anchor="middle" x="400.34" y="-228.95" font-family="Times,serif" font-size="14.00">b</text>
</g>
<!-- a0&#45;&gt;a9 -->
<g id="edge18" class="edge">
<title>a0&#45;&gt;a9</title>
<path fill="none" stroke="black" d="M357.55,-289.46C364.46,-280.67 373.25,-269.48 381.07,-259.53"/>
<polygon fill="black" stroke="black" points="383.81,-261.71 387.24,-251.68 378.31,-257.38 383.81,-261.71"/>
</g>
<!-- a16 -->
<g id="node17" class="node">
<title>a16</title>
<ellipse fill="none" stroke="black" cx="510.34" cy="-234" rx="65.17" ry="18"/>
<text text-anchor="middle" x="510.34" y="-228.95" font-family="Times,serif" font-size="14.00">SEMICOLON</text>
</g>
<!-- a0&#45;&gt;a16 -->
<g id="edge19" class="edge">
<title>a0&#45;&gt;a16</title>
<path fill="none" stroke="black" d="M367.6,-295.56C392.57,-284.96 433.74,-267.5 465.46,-254.04"/>
<polygon fill="black" stroke="black" points="466.59,-257.36 474.43,-250.24 463.86,-250.92 466.59,-257.36"/>
</g>
<!-- a17 -->
<g id="node18" class="node">
<title>a17</title>
<ellipse fill="none" stroke="black" cx="620.34" cy="-234" rx="27" ry="18"/>
<text text-anchor="middle" x="620.34" y="-228.95" font-family="Times,serif" font-size="14.00">c</text>
</g>
<!-- a0&#45;&gt;a17 -->
<g id="edge20" class="edge">
<title>a0&#45;&gt;a17</title>
<path fill="none" stroke="black" d="M371.68,-301.13C416.28,-294.15 509.15,-277.73 584.34,-252 585.9,-251.47 587.47,-250.89 589.05,-250.28"/>
<polygon fill="black" stroke="black" points="590.14,-253.62 597.96,-246.47 587.39,-247.18 590.14,-253.62"/>
</g>
<!-- a21 -->
<g id="node22" class="node">
<title>a21</title>
<ellipse fill="none" stroke="black" cx="692.34" cy="-234" rx="27" ry="18"/>
<text text-anchor="middle" x="692.34" y="-228.95" font-family="Times,serif" font-size="14.00">RP</text>
</g>
<!-- a0&#45;&gt;a21 -->
<g id="edge21" class="edge">
<title>a0&#45;&gt;a21</title>
<path fill="none" stroke="black" d="M372.13,-302.91C426.69,-298.11 554.21,-284.15 656.34,-252 657.95,-251.49 659.58,-250.93 661.21,-250.32"/>
<polygon fill="black" stroke="black" points="662.53,-253.56 670.4,-246.47 659.82,-247.11 662.53,-253.56"/>
</g>
<!-- a4 -->
<g id="node5" class="node">
<title>a4</title>
<ellipse fill="none" stroke="black" cx="29.34" cy="-162" rx="29.34" ry="18"/>
<text text-anchor="middle" x="29.34" y="-156.95" font-family="Times,serif" font-size="14.00">VAR</text>
</g>
<!-- a3&#45;&gt;a4 -->
<g id="edge2" class="edge">
<title>a3&#45;&gt;a4</title>
<path fill="none" stroke="black" d="M158.66,-222.72C153.94,-220.5 148.98,-218.16 144.34,-216 116.83,-203.16 85.52,-188.75 62.53,-178.2"/>
<polygon fill="black" stroke="black" points="64.21,-175.11 53.66,-174.13 61.29,-181.48 64.21,-175.11"/>
</g>
<!-- a5 -->
<g id="node6" class="node">
<title>a5</title>
<ellipse fill="none" stroke="black" cx="106.34" cy="-162" rx="29.34" ry="18"/>
<text text-anchor="middle" x="106.34" y="-156.95" font-family="Times,serif" font-size="14.00">VAR</text>
</g>
<!-- a3&#45;&gt;a5 -->
<g id="edge9" class="edge">
<title>a3&#45;&gt;a5</title>
<path fill="none" stroke="black" d="M165.37,-218.83C155.17,-209.19 141.47,-196.23 129.83,-185.22"/>
<polygon fill="black" stroke="black" points="132.58,-183 122.91,-178.67 127.76,-188.08 132.58,-183"/>
</g>
<!-- a6 -->
<g id="node7" class="node">
<title>a6</title>
<ellipse fill="none" stroke="black" cx="180.34" cy="-162" rx="27" ry="18"/>
<text text-anchor="middle" x="180.34" y="-156.95" font-family="Times,serif" font-size="14.00">EQ</text>
</g>
<!-- a3&#45;&gt;a6 -->
<g id="edge14" class="edge">
<title>a3&#45;&gt;a6</title>
<path fill="none" stroke="black" d="M180.34,-215.7C180.34,-208.41 180.34,-199.73 180.34,-191.54"/>
<polygon fill="black" stroke="black" points="183.84,-191.62 180.34,-181.62 176.84,-191.62 183.84,-191.62"/>
</g>
<!-- a7 -->
<g id="node8" class="node">
<title>a7</title>
<ellipse fill="none" stroke="black" cx="258.34" cy="-162" rx="32.93" ry="18"/>
<text text-anchor="middle" x="258.34" y="-156.95" font-family="Times,serif" font-size="14.00">NUM</text>
</g>
<!-- a3&#45;&gt;a7 -->
<g id="edge15" class="edge">
<title>a3&#45;&gt;a7</title>
<path fill="none" stroke="black" d="M195.75,-219.17C206.4,-209.62 220.8,-196.69 233.11,-185.65"/>
<polygon fill="black" stroke="black" points="235.38,-188.31 240.49,-179.02 230.71,-183.1 235.38,-188.31"/>
</g>
<!-- a10 -->
<g id="node11" class="node">
<title>a10</title>
<ellipse fill="none" stroke="black" cx="338.34" cy="-162" rx="29.34" ry="18"/>
<text text-anchor="middle" x="338.34" y="-156.95" font-family="Times,serif" font-size="14.00">VAR</text>
</g>
<!-- a9&#45;&gt;a10 -->
<g id="edge3" class="edge">
<title>a9&#45;&gt;a10</title>
<path fill="none" stroke="black" d="M387.2,-218.15C379.09,-209 368.51,-197.05 359.26,-186.62"/>
<polygon fill="black" stroke="black" points="362.16,-184.61 352.91,-179.44 356.92,-189.25 362.16,-184.61"/>
</g>
<!-- a11 -->
<g id="node12" class="node">
<title>a11</title>
<ellipse fill="none" stroke="black" cx="412.34" cy="-162" rx="27" ry="18"/>
<text text-anchor="middle" x="412.34" y="-156.95" font-family="Times,serif" font-size="14.00">z</text>
</g>
<!-- a9&#45;&gt;a11 -->
<g id="edge10" class="edge">
<title>a9&#45;&gt;a11</title>
<path fill="none" stroke="black" d="M403.31,-215.7C404.57,-208.32 406.08,-199.52 407.5,-191.25"/>
<polygon fill="black" stroke="black" points="410.92,-192.04 409.16,-181.6 404.02,-190.86 410.92,-192.04"/>
</g>
<!-- a15 -->
<g id="node16" class="node">
<title>a15</title>
<ellipse fill="none" stroke="black" cx="490.34" cy="-162" rx="32.93" ry="18"/>
<text text-anchor="middle" x="490.34" y="-156.95" font-family="Times,serif" font-size="14.00">NUM</text>
</g>
<!-- a9&#45;&gt;a15 -->
<g id="edge16" class="edge">
<title>a9&#45;&gt;a15</title>
<path fill="none" stroke="black" d="M417.27,-219.83C430.18,-209.8 448.21,-195.77 463.13,-184.17"/>
<polygon fill="black" stroke="black" points="465,-187.14 470.75,-178.24 460.71,-181.62 465,-187.14"/>
</g>
<!-- a12 -->
<g id="node13" class="node">
<title>a12</title>
<ellipse fill="none" stroke="black" cx="358.34" cy="-90" rx="62.61" ry="18"/>
<text text-anchor="middle" x="358.34" y="-84.95" font-family="Times,serif" font-size="14.00">LESS_THAN</text>
</g>
<!-- a11&#45;&gt;a12 -->
<g id="edge4" class="edge">
<title>a11&#45;&gt;a12</title>
<path fill="none" stroke="black" d="M400.36,-145.46C393.86,-137.04 385.66,-126.41 378.23,-116.78"/>
<polygon fill="black" stroke="black" points="381.23,-114.94 372.35,-109.16 375.69,-119.22 381.23,-114.94"/>
</g>
<!-- a13 -->
<g id="node14" class="node">
<title>a13</title>
<ellipse fill="none" stroke="black" cx="466.34" cy="-90" rx="27" ry="18"/>
<text text-anchor="middle" x="466.34" y="-84.95" font-family="Times,serif" font-size="14.00">e</text>
</g>
<!-- a11&#45;&gt;a13 -->
<g id="edge11" class="edge">
<title>a11&#45;&gt;a13</title>
<path fill="none" stroke="black" d="M424.33,-145.46C431.11,-136.67 439.74,-125.48 447.42,-115.53"/>
<polygon fill="black" stroke="black" points="450.13,-117.75 453.47,-107.69 444.59,-113.47 450.13,-117.75"/>
</g>
<!-- a14 -->
<g id="node15" class="node">
<title>a14</title>
<ellipse fill="none" stroke="black" cx="466.34" cy="-18" rx="27" ry="18"/>
<text text-anchor="middle" x="466.34" y="-12.95" font-family="Times,serif" font-size="14.00">EQ</text>
</g>
<!-- a13&#45;&gt;a14 -->
<g id="edge5" class="edge">
<title>a13&#45;&gt;a14</title>
<path fill="none" stroke="black" d="M466.34,-71.7C466.34,-64.41 466.34,-55.73 466.34,-47.54"/>
<polygon fill="black" stroke="black" points="469.84,-47.62 466.34,-37.62 462.84,-47.62 469.84,-47.62"/>
</g>
<!-- a18 -->
<g id="node19" class="node">
<title>a18</title>
<ellipse fill="none" stroke="black" cx="595.34" cy="-162" rx="29.34" ry="18"/>
<text text-anchor="middle" x="595.34" y="-156.95" font-family="Times,serif" font-size="14.00">VAR</text>
</g>
<!-- a17&#45;&gt;a18 -->
<g id="edge6" class="edge">
<title>a17&#45;&gt;a18</title>
<path fill="none" stroke="black" d="M614.29,-216.05C611.56,-208.4 608.26,-199.16 605.19,-190.56"/>
<polygon fill="black" stroke="black" points="608.51,-189.45 601.85,-181.21 601.92,-191.81 608.51,-189.45"/>
</g>
<!-- a19 -->
<g id="node20" class="node">
<title>a19</title>
<ellipse fill="none" stroke="black" cx="669.34" cy="-162" rx="27" ry="18"/>
<text text-anchor="middle" x="669.34" y="-156.95" font-family="Times,serif" font-size="14.00">op</text>
</g>
<!-- a17&#45;&gt;a19 -->
<g id="edge12" class="edge">
<title>a17&#45;&gt;a19</title>
<path fill="none" stroke="black" d="M631.46,-217.12C637.48,-208.52 645.04,-197.72 651.83,-188.02"/>
<polygon fill="black" stroke="black" points="654.53,-190.26 657.4,-180.06 648.8,-186.25 654.53,-190.26"/>
</g>
<!-- a20 -->
<g id="node21" class="node">
<title>a20</title>
<ellipse fill="none" stroke="black" cx="669.34" cy="-90" rx="27" ry="18"/>
<text text-anchor="middle" x="669.34" y="-84.95" font-family="Times,serif" font-size="14.00">INC</text>
</g>
<!-- a19&#45;&gt;a20 -->
<g id="edge7" class="edge">
<title>a19&#45;&gt;a20</title>
<path fill="none" stroke="black" d="M669.34,-143.7C669.34,-136.41 669.34,-127.73 669.34,-119.54"/>
<polygon fill="black" stroke="black" points="672.84,-119.62 669.34,-109.62 665.84,-119.62 672.84,-119.62"/>
</g>
</g>
</svg>
