<?xml version="1.0" encoding="UTF-8" standalone="no"?>
<!DOCTYPE svg PUBLIC "-//W3C//DTD SVG 1.1//EN"
 "http://www.w3.org/Graphics/SVG/1.1/DTD/svg11.dtd">
<!-- Generated by graphviz version 2.43.0 (0)
 -->
<!-- Title: %3 Pages: 1 -->
<svg width="750pt" height="260pt"
 viewBox="0.00 0.00 750.20 260.00" xmlns="http://www.w3.org/2000/svg" xmlns:xlink="http://www.w3.org/1999/xlink">
<g id="graph0" class="graph" transform="scale(1 1) rotate(0) translate(4 256)">
<title>%3</title>
<polygon fill="white" stroke="transparent" points="-4,4 -4,-256 746.2,-256 746.2,4 -4,4"/>
<!-- a0 -->
<g id="node1" class="node">
<title>a0</title>
<ellipse fill="none" stroke="black" cx="353.2" cy="-234" rx="27" ry="18"/>
<text text-anchor="middle" x="353.2" y="-230.3" font-family="Times,serif" font-size="14.00">S</text>
</g>
<!-- a1 -->
<g id="node2" class="node">
<title>a1</title>
<ellipse fill="none" stroke="black" cx="31.2" cy="-162" rx="31.4" ry="18"/>
<text text-anchor="middle" x="31.2" y="-158.3" font-family="Times,serif" font-size="14.00">FOR</text>
</g>
<!-- a0&#45;&gt;a1 -->
<g id="edge1" class="edge">
<title>a0&#45;&gt;a1</title>
<path fill="none" stroke="black" d="M326.69,-229.96C276.18,-223.75 162.98,-207.77 71.2,-180 68.8,-179.27 66.34,-178.45 63.89,-177.56"/>
<polygon fill="black" stroke="black" points="65.16,-174.3 54.57,-173.93 62.62,-180.82 65.16,-174.3"/>
</g>
<!-- a2 -->
<g id="node3" class="node">
<title>a2</title>
<ellipse fill="none" stroke="black" cx="107.2" cy="-162" rx="27" ry="18"/>
<text text-anchor="middle" x="107.2" y="-158.3" font-family="Times,serif" font-size="14.00">LP</text>
</g>
<!-- a0&#45;&gt;a2 -->
<g id="edge8" class="edge">
<title>a0&#45;&gt;a2</title>
<path fill="none" stroke="black" d="M327.51,-228.19C287.45,-220.33 207.97,-203.22 143.2,-180 141.34,-179.34 139.46,-178.61 137.56,-177.84"/>
<polygon fill="black" stroke="black" points="138.79,-174.56 128.23,-173.77 135.99,-180.97 138.79,-174.56"/>
</g>
<!-- a3 -->
<g id="node4" class="node">
<title>a3</title>
<ellipse fill="none" stroke="black" cx="179.2" cy="-162" rx="27" ry="18"/>
<text text-anchor="middle" x="179.2" y="-158.3" font-family="Times,serif" font-size="14.00">A</text>
</g>
<!-- a0&#45;&gt;a3 -->
<g id="edge9" class="edge">
<title>a0&#45;&gt;a3</title>
<path fill="none" stroke="black" d="M330.03,-224.7C302.45,-214.68 255.08,-197.05 215.2,-180 213.39,-179.23 211.53,-178.41 209.67,-177.58"/>
<polygon fill="black" stroke="black" points="210.95,-174.32 200.4,-173.33 208.03,-180.68 210.95,-174.32"/>
</g>
<!-- a11 -->
<g id="node12" class="node">
<title>a11</title>
<ellipse fill="none" stroke="black" cx="295.2" cy="-162" rx="71.49" ry="18"/>
<text text-anchor="middle" x="295.2" y="-158.3" font-family="Times,serif" font-size="14.00">SEMICOLON</text>
</g>
<!-- a0&#45;&gt;a11 -->
<g id="edge12" class="edge">
<title>a0&#45;&gt;a11</title>
<path fill="none" stroke="black" d="M340.61,-217.81C333.43,-209.14 324.24,-198.05 316.01,-188.12"/>
<polygon fill="black" stroke="black" points="318.46,-185.59 309.39,-180.13 313.07,-190.06 318.46,-185.59"/>
</g>
<!-- a12 -->
<g id="node13" class="node">
<title>a12</title>
<ellipse fill="none" stroke="black" cx="411.2" cy="-162" rx="27" ry="18"/>
<text text-anchor="middle" x="411.2" y="-158.3" font-family="Times,serif" font-size="14.00">B</text>
</g>
<!-- a0&#45;&gt;a12 -->
<g id="edge13" class="edge">
<title>a0&#45;&gt;a12</title>
<path fill="none" stroke="black" d="M365.78,-217.81C373.46,-208.55 383.42,-196.52 392.06,-186.09"/>
<polygon fill="black" stroke="black" points="394.95,-188.09 398.64,-178.16 389.56,-183.63 394.95,-188.09"/>
</g>
<!-- a20 -->
<g id="node21" class="node">
<title>a20</title>
<ellipse fill="none" stroke="black" cx="527.2" cy="-162" rx="71.49" ry="18"/>
<text text-anchor="middle" x="527.2" y="-158.3" font-family="Times,serif" font-size="14.00">SEMICOLON</text>
</g>
<!-- a0&#45;&gt;a20 -->
<g id="edge14" class="edge">
<title>a0&#45;&gt;a20</title>
<path fill="none" stroke="black" d="M375.94,-223.85C402.52,-213.16 447.18,-195.19 481.09,-181.55"/>
<polygon fill="black" stroke="black" points="482.83,-184.62 490.8,-177.64 480.21,-178.13 482.83,-184.62"/>
</g>
<!-- a21 -->
<g id="node22" class="node">
<title>a21</title>
<ellipse fill="none" stroke="black" cx="643.2" cy="-162" rx="27" ry="18"/>
<text text-anchor="middle" x="643.2" y="-158.3" font-family="Times,serif" font-size="14.00">C</text>
</g>
<!-- a0&#45;&gt;a21 -->
<g id="edge15" class="edge">
<title>a0&#45;&gt;a21</title>
<path fill="none" stroke="black" d="M379.7,-229.57C426.5,-223.05 526.47,-207.06 607.2,-180 609.11,-179.36 611.06,-178.64 613.01,-177.87"/>
<polygon fill="black" stroke="black" points="614.8,-180.91 622.6,-173.74 612.03,-174.48 614.8,-180.91"/>
</g>
<!-- a26 -->
<g id="node27" class="node">
<title>a26</title>
<ellipse fill="none" stroke="black" cx="715.2" cy="-162" rx="27" ry="18"/>
<text text-anchor="middle" x="715.2" y="-158.3" font-family="Times,serif" font-size="14.00">RP</text>
</g>
<!-- a0&#45;&gt;a26 -->
<g id="edge16" class="edge">
<title>a0&#45;&gt;a26</title>
<path fill="none" stroke="black" d="M379.97,-231.19C436.42,-226.83 571.32,-213.51 679.2,-180 681.13,-179.4 683.09,-178.72 685.04,-177.97"/>
<polygon fill="black" stroke="black" points="686.81,-181.03 694.65,-173.91 684.08,-174.58 686.81,-181.03"/>
</g>
<!-- a4 -->
<g id="node5" class="node">
<title>a4</title>
<ellipse fill="none" stroke="black" cx="39.2" cy="-90" rx="27" ry="18"/>
<text text-anchor="middle" x="39.2" y="-86.3" font-family="Times,serif" font-size="14.00">V</text>
</g>
<!-- a3&#45;&gt;a4 -->
<g id="edge17" class="edge">
<title>a3&#45;&gt;a4</title>
<path fill="none" stroke="black" d="M158.24,-150.52C134.63,-138.72 96.06,-119.43 69.25,-106.03"/>
<polygon fill="black" stroke="black" points="70.81,-102.89 60.3,-101.55 67.68,-109.15 70.81,-102.89"/>
</g>
<!-- a6 -->
<g id="node7" class="node">
<title>a6</title>
<ellipse fill="none" stroke="black" cx="111.2" cy="-90" rx="27" ry="18"/>
<text text-anchor="middle" x="111.2" y="-86.3" font-family="Times,serif" font-size="14.00">V</text>
</g>
<!-- a3&#45;&gt;a6 -->
<g id="edge23" class="edge">
<title>a3&#45;&gt;a6</title>
<path fill="none" stroke="black" d="M165.11,-146.5C155.63,-136.73 142.95,-123.69 132.28,-112.7"/>
<polygon fill="black" stroke="black" points="134.75,-110.22 125.27,-105.49 129.73,-115.1 134.75,-110.22"/>
</g>
<!-- a8 -->
<g id="node9" class="node">
<title>a8</title>
<ellipse fill="none" stroke="black" cx="183.2" cy="-90" rx="27" ry="18"/>
<text text-anchor="middle" x="183.2" y="-86.3" font-family="Times,serif" font-size="14.00">EQ</text>
</g>
<!-- a3&#45;&gt;a8 -->
<g id="edge25" class="edge">
<title>a3&#45;&gt;a8</title>
<path fill="none" stroke="black" d="M180.19,-143.7C180.63,-135.98 181.16,-126.71 181.65,-118.11"/>
<polygon fill="black" stroke="black" points="185.14,-118.29 182.22,-108.1 178.15,-117.89 185.14,-118.29"/>
</g>
<!-- a9 -->
<g id="node10" class="node">
<title>a9</title>
<ellipse fill="none" stroke="black" cx="255.2" cy="-90" rx="27" ry="18"/>
<text text-anchor="middle" x="255.2" y="-86.3" font-family="Times,serif" font-size="14.00">N</text>
</g>
<!-- a3&#45;&gt;a9 -->
<g id="edge26" class="edge">
<title>a3&#45;&gt;a9</title>
<path fill="none" stroke="black" d="M194.58,-146.83C205.39,-136.87 220.05,-123.37 232.25,-112.14"/>
<polygon fill="black" stroke="black" points="234.86,-114.49 239.84,-105.14 230.11,-109.34 234.86,-114.49"/>
</g>
<!-- a5 -->
<g id="node6" class="node">
<title>a5</title>
<ellipse fill="none" stroke="black" cx="39.2" cy="-18" rx="27" ry="18"/>
<text text-anchor="middle" x="39.2" y="-14.3" font-family="Times,serif" font-size="14.00">int</text>
</g>
<!-- a4&#45;&gt;a5 -->
<g id="edge2" class="edge">
<title>a4&#45;&gt;a5</title>
<path fill="none" stroke="black" d="M39.2,-71.7C39.2,-63.98 39.2,-54.71 39.2,-46.11"/>
<polygon fill="black" stroke="black" points="42.7,-46.1 39.2,-36.1 35.7,-46.1 42.7,-46.1"/>
</g>
<!-- a7 -->
<g id="node8" class="node">
<title>a7</title>
<ellipse fill="none" stroke="black" cx="111.2" cy="-18" rx="27" ry="18"/>
<text text-anchor="middle" x="111.2" y="-14.3" font-family="Times,serif" font-size="14.00">i</text>
</g>
<!-- a6&#45;&gt;a7 -->
<g id="edge3" class="edge">
<title>a6&#45;&gt;a7</title>
<path fill="none" stroke="black" d="M111.2,-71.7C111.2,-63.98 111.2,-54.71 111.2,-46.11"/>
<polygon fill="black" stroke="black" points="114.7,-46.1 111.2,-36.1 107.7,-46.1 114.7,-46.1"/>
</g>
<!-- a10 -->
<g id="node11" class="node">
<title>a10</title>
<ellipse fill="none" stroke="black" cx="255.2" cy="-18" rx="27" ry="18"/>
<text text-anchor="middle" x="255.2" y="-14.3" font-family="Times,serif" font-size="14.00">1</text>
</g>
<!-- a9&#45;&gt;a10 -->
<g id="edge18" class="edge">
<title>a9&#45;&gt;a10</title>
<path fill="none" stroke="black" d="M255.2,-71.7C255.2,-63.98 255.2,-54.71 255.2,-46.11"/>
<polygon fill="black" stroke="black" points="258.7,-46.1 255.2,-36.1 251.7,-46.1 258.7,-46.1"/>
</g>
<!-- a13 -->
<g id="node14" class="node">
<title>a13</title>
<ellipse fill="none" stroke="black" cx="335.2" cy="-90" rx="27" ry="18"/>
<text text-anchor="middle" x="335.2" y="-86.3" font-family="Times,serif" font-size="14.00">V</text>
</g>
<!-- a12&#45;&gt;a13 -->
<g id="edge4" class="edge">
<title>a12&#45;&gt;a13</title>
<path fill="none" stroke="black" d="M395.82,-146.83C385,-136.87 370.34,-123.37 358.15,-112.14"/>
<polygon fill="black" stroke="black" points="360.28,-109.34 350.55,-105.14 355.54,-114.49 360.28,-109.34"/>
</g>
<!-- a15 -->
<g id="node16" class="node">
<title>a15</title>
<ellipse fill="none" stroke="black" cx="411.2" cy="-90" rx="27" ry="18"/>
<text text-anchor="middle" x="411.2" y="-86.3" font-family="Times,serif" font-size="14.00">Z</text>
</g>
<!-- a12&#45;&gt;a15 -->
<g id="edge10" class="edge">
<title>a12&#45;&gt;a15</title>
<path fill="none" stroke="black" d="M411.2,-143.7C411.2,-135.98 411.2,-126.71 411.2,-118.11"/>
<polygon fill="black" stroke="black" points="414.7,-118.1 411.2,-108.1 407.7,-118.1 414.7,-118.1"/>
</g>
<!-- a18 -->
<g id="node19" class="node">
<title>a18</title>
<ellipse fill="none" stroke="black" cx="515.2" cy="-90" rx="27" ry="18"/>
<text text-anchor="middle" x="515.2" y="-86.3" font-family="Times,serif" font-size="14.00">N</text>
</g>
<!-- a12&#45;&gt;a18 -->
<g id="edge11" class="edge">
<title>a12&#45;&gt;a18</title>
<path fill="none" stroke="black" d="M429.79,-148.49C446.06,-137.54 469.89,-121.49 488.25,-109.14"/>
<polygon fill="black" stroke="black" points="490.42,-111.89 496.77,-103.41 486.51,-106.09 490.42,-111.89"/>
</g>
<!-- a14 -->
<g id="node15" class="node">
<title>a14</title>
<ellipse fill="none" stroke="black" cx="331.2" cy="-18" rx="27" ry="18"/>
<text text-anchor="middle" x="331.2" y="-14.3" font-family="Times,serif" font-size="14.00">int</text>
</g>
<!-- a13&#45;&gt;a14 -->
<g id="edge19" class="edge">
<title>a13&#45;&gt;a14</title>
<path fill="none" stroke="black" d="M334.21,-71.7C333.77,-63.98 333.24,-54.71 332.75,-46.11"/>
<polygon fill="black" stroke="black" points="336.24,-45.89 332.17,-36.1 329.25,-46.29 336.24,-45.89"/>
</g>
<!-- a16 -->
<g id="node17" class="node">
<title>a16</title>
<ellipse fill="none" stroke="black" cx="403.2" cy="-18" rx="27" ry="18"/>
<text text-anchor="middle" x="403.2" y="-14.3" font-family="Times,serif" font-size="14.00">LT</text>
</g>
<!-- a15&#45;&gt;a16 -->
<g id="edge20" class="edge">
<title>a15&#45;&gt;a16</title>
<path fill="none" stroke="black" d="M409.22,-71.7C408.34,-63.98 407.28,-54.71 406.3,-46.11"/>
<polygon fill="black" stroke="black" points="409.76,-45.64 405.15,-36.1 402.81,-46.44 409.76,-45.64"/>
</g>
<!-- a17 -->
<g id="node18" class="node">
<title>a17</title>
<ellipse fill="none" stroke="black" cx="475.2" cy="-18" rx="27" ry="18"/>
<text text-anchor="middle" x="475.2" y="-14.3" font-family="Times,serif" font-size="14.00">E</text>
</g>
<!-- a15&#45;&gt;a17 -->
<g id="edge22" class="edge">
<title>a15&#45;&gt;a17</title>
<path fill="none" stroke="black" d="M424.77,-74.15C433.51,-64.6 445.03,-51.99 454.85,-41.25"/>
<polygon fill="black" stroke="black" points="457.48,-43.57 461.64,-33.82 452.31,-38.84 457.48,-43.57"/>
</g>
<!-- a19 -->
<g id="node20" class="node">
<title>a19</title>
<ellipse fill="none" stroke="black" cx="547.2" cy="-18" rx="27" ry="18"/>
<text text-anchor="middle" x="547.2" y="-14.3" font-family="Times,serif" font-size="14.00">10</text>
</g>
<!-- a18&#45;&gt;a19 -->
<g id="edge5" class="edge">
<title>a18&#45;&gt;a19</title>
<path fill="none" stroke="black" d="M522.78,-72.41C526.57,-64.13 531.23,-53.92 535.47,-44.66"/>
<polygon fill="black" stroke="black" points="538.69,-46.02 539.67,-35.47 532.33,-43.11 538.69,-46.02"/>
</g>
<!-- a22 -->
<g id="node23" class="node">
<title>a22</title>
<ellipse fill="none" stroke="black" cx="631.2" cy="-90" rx="27" ry="18"/>
<text text-anchor="middle" x="631.2" y="-86.3" font-family="Times,serif" font-size="14.00">V</text>
</g>
<!-- a21&#45;&gt;a22 -->
<g id="edge21" class="edge">
<title>a21&#45;&gt;a22</title>
<path fill="none" stroke="black" d="M640.29,-144.05C638.97,-136.35 637.37,-127.03 635.89,-118.36"/>
<polygon fill="black" stroke="black" points="639.3,-117.54 634.16,-108.28 632.4,-118.72 639.3,-117.54"/>
</g>
<!-- a24 -->
<g id="node25" class="node">
<title>a24</title>
<ellipse fill="none" stroke="black" cx="704.2" cy="-90" rx="27" ry="18"/>
<text text-anchor="middle" x="704.2" y="-86.3" font-family="Times,serif" font-size="14.00">O</text>
</g>
<!-- a21&#45;&gt;a24 -->
<g id="edge24" class="edge">
<title>a21&#45;&gt;a24</title>
<path fill="none" stroke="black" d="M656.13,-146.15C664.38,-136.69 675.23,-124.24 684.54,-113.56"/>
<polygon fill="black" stroke="black" points="687.35,-115.66 691.28,-105.82 682.07,-111.06 687.35,-115.66"/>
</g>
<!-- a23 -->
<g id="node24" class="node">
<title>a23</title>
<ellipse fill="none" stroke="black" cx="631.2" cy="-18" rx="27" ry="18"/>
<text text-anchor="middle" x="631.2" y="-14.3" font-family="Times,serif" font-size="14.00">a</text>
</g>
<!-- a22&#45;&gt;a23 -->
<g id="edge6" class="edge">
<title>a22&#45;&gt;a23</title>
<path fill="none" stroke="black" d="M631.2,-71.7C631.2,-63.98 631.2,-54.71 631.2,-46.11"/>
<polygon fill="black" stroke="black" points="634.7,-46.1 631.2,-36.1 627.7,-46.1 634.7,-46.1"/>
</g>
<!-- a25 -->
<g id="node26" class="node">
<title>a25</title>
<ellipse fill="none" stroke="black" cx="705.2" cy="-18" rx="28.7" ry="18"/>
<text text-anchor="middle" x="705.2" y="-14.3" font-family="Times,serif" font-size="14.00">INC</text>
</g>
<!-- a24&#45;&gt;a25 -->
<g id="edge7" class="edge">
<title>a24&#45;&gt;a25</title>
<path fill="none" stroke="black" d="M704.44,-71.7C704.55,-63.98 704.69,-54.71 704.81,-46.11"/>
<polygon fill="black" stroke="black" points="708.31,-46.15 704.95,-36.1 701.31,-46.05 708.31,-46.15"/>
</g>
</g>
</svg>
